<?xml version="1.0" encoding="UTF-8"?>
<!DOCTYPE svg PUBLIC "-//W3C//DTD SVG 1.1//EN" "http://www.w3.org/Graphics/SVG/1.1/DTD/svg11.dtd">
<!-- Creator: CorelDRAW 2018 -->
<svg xmlns="http://www.w3.org/2000/svg" xml:space="preserve" width="215.9mm" height="279.4mm" version="1.1" style="shape-rendering:geometricPrecision; text-rendering:geometricPrecision; image-rendering:optimizeQuality; fill-rule:evenodd; clip-rule:evenodd"
viewBox="0 0 21590 27940"
 xmlns:xlink="http://www.w3.org/1999/xlink">
 <defs>
  <style type="text/css">
   <![CDATA[
    .fil0 {fill:#040404}
   ]]>
  </style>
 </defs>
 <g id="Layer_x0020_1">
  <metadata id="CorelCorpID_0Corel-Layer"/>
  <path class="fil0" d="M11375.56 15196.4l-162.1 1559.45c174.28,-154.37 883.24,-1127.87 978.54,-1351.93 163.41,204.04 291.24,820.76 378.41,1116.46 92.03,312.17 217.47,896.79 341,1153.79l33.1 -2955.1 1673.67 2540.36 -642.34 -2268.62c322.84,128.11 668.32,444.87 1024.68,625.79l-388.74 -1217.22c573.58,-9.16 1938.84,581.09 2493,570.56 -701.99,-525.18 -2063.4,-1293.64 -2584.81,-1731.71l2984.86 165.71 -2409.51 -611.74c32.76,-19.81 41.54,-30.54 108.92,-69l1103.18 -471.03c-303.02,-156.96 -1061.94,-208.24 -1452.96,-262.66 89.5,-153.48 63.59,-111.39 198.97,-236.52 372.71,-344.57 1401.89,-1212.14 1594.61,-1455.31l-3008.86 1565.58 1748.89 -2693.15c-30.32,-74.23 -19.05,-22.56 -225.84,168.48 -93.15,86.06 -146.17,133.85 -237.46,218.89 -309.03,287.83 -1121.26,1094.03 -1346.11,1231.49l95.45 -993.25 -968.39 790.43 -645.41 -2223.48 90.69 2709.19 -1564.03 -2020.7c-51.66,-65.05 -72.75,-86.74 -127.97,-151.5 -10.88,-12.78 -42.7,-50.87 -53.49,-63.38 -8.22,-9.53 -20.71,-23.78 -28.28,-32.48 -7.72,-8.87 -22.84,-25.68 -29.2,-32.96 -6.45,-7.34 -19.19,-22.67 -29.69,-33.29l654.97 2267.98c-325.66,-195.67 -871.97,-598.96 -1173.31,-723.09l535.69 1316.38 -2488.43 -610.21 2409.41 1513.78 -2837.56 74.52 2433.44 617.4c-130.47,91 -311.69,148.52 -505.4,236.96l-529.47 253.54 1270.54 308.14c-153.51,237.83 -1510.13,1433.61 -1780.17,1655.5l29.54 38.17c8.86,-2.73 556.87,-327.68 660.46,-385.63l2091.41 -1149.06c-158.24,369.3 -545.61,981.84 -781.06,1375.82 -274.19,458.77 -532.7,894.95 -782.45,1344.37 208.35,-137.67 659.09,-613.97 879.52,-820.41l825.57 -769.97c36.99,-26.26 137.91,-71.55 144.52,-85.34zm1527.59 -4063.5l-164.51 1228.47c162.92,-105.7 673,-774.79 825.24,-963.85l-364.13 861.25 571.5 -115.36c-130.21,214.76 -199.56,141.43 -328.96,382.53l893.11 -94.85c-279.8,128.47 -712.63,205.29 -1019.44,366.55l1214.76 267.25 -1002.11 128.86c100.81,143.25 258.29,276.21 339.91,417.93l-464.29 -95.34c123.62,249.92 427.9,462.71 573.58,732.18 -171.27,-114.35 -744.43,-532.54 -932.81,-571.75 24.23,325.05 368.12,746.68 376.51,1002.87 -16.23,-47.95 -525.91,-651.65 -614.44,-718.89 -47.9,128.82 -43.2,158.93 -73.45,299.43l-95.52 311 -216.01 -573.97 -385.85 837.42 120.56 -1180.73 -733.08 919.17c-10.08,-173.47 237.55,-657.66 316.71,-847.11l-517.94 47.48 283.83 -317.48 -921.92 114.65c160.25,-118.79 316.64,-151.15 501.63,-229.64l438.05 -211.73 -1099.92 -209.05 985.41 -153.15c-142.55,-60.44 -322.48,-326.95 -394.05,-402.67l529.99 90.73c-183.01,-240.12 -426.49,-499.48 -613.73,-732.16 362.56,140.63 706.61,426.55 1050.36,568.05 -54.97,-250.16 -360.01,-709.98 -458.62,-957.32 223.98,226.44 378.51,512.18 628.53,703.4l214.89 -421.94 144.63 325.56 391.58 -807.79zm104.41 2497.18l-22.28 -25.66c-7.63,8.4 20.18,23.28 22.28,25.66z"/>
 </g>
</svg>
